<mxfile host="app.diagrams.net" modified="2022-04-11T11:23:25.016Z" agent="5.0 (Macintosh)" etag="Nk_Hm5S-Mg8hoIp9Wq9c" version="17.4.2" type="github">
  <diagram id="Oomg2yKPQOf9j9I03rMb" name="Page-1">
    <mxGraphModel dx="946" dy="612" grid="1" gridSize="10" guides="1" tooltips="1" connect="1" arrows="1" fold="1" page="1" pageScale="1" pageWidth="850" pageHeight="1100" math="0" shadow="0">
      <root>
        <mxCell id="0" />
        <mxCell id="1" parent="0" />
        <mxCell id="6XJYnJXnF-eM4ezIhweH-1" value="get a cat" style="rounded=1;whiteSpace=wrap;html=1;" vertex="1" parent="1">
          <mxGeometry x="140" y="160" width="120" height="60" as="geometry" />
        </mxCell>
        <mxCell id="6XJYnJXnF-eM4ezIhweH-2" value="image of random cat" style="rounded=1;whiteSpace=wrap;html=1;" vertex="1" parent="1">
          <mxGeometry x="410" y="160" width="120" height="60" as="geometry" />
        </mxCell>
        <mxCell id="6XJYnJXnF-eM4ezIhweH-3" value="" style="endArrow=classic;html=1;rounded=0;" edge="1" parent="1">
          <mxGeometry width="50" height="50" relative="1" as="geometry">
            <mxPoint x="270" y="190" as="sourcePoint" />
            <mxPoint x="400" y="190" as="targetPoint" />
          </mxGeometry>
        </mxCell>
      </root>
    </mxGraphModel>
  </diagram>
</mxfile>
